<svg xmlns="http://www.w3.org/2000/svg" viewBox="0 366 357 329" >
  <path d="M235 434c8.81-1.3 15.76-5.41 22.25-11.75s9.89-13.33 11.82-22.18c1.94-8.84.96-20.96-3.15-28.99-4.1-8.04-8.67-12.86-16.17-17.83-7.51-4.96-18.69-7.07-27.75-6.25s-17.74 3.75-24.25 9.75c-6.5 6-11.51 11.86-13.77 20.23-2.27 8.36-4.23 21.05.71 29.33s4.77 13.23-2.94 19.44-10.34 10.25-17 17-10.72 8.99-17 17-14.43 3.53-23.75 2.25-19.23 2.51-26.77 7.23S85.79 480 81.77 487.77c-4.02 7.78-5 20.48-2.75 29.21 2.26 8.72 5.55 15.46 12.23 21.77 6.67 6.31 13.89 9.58 22.73 11.27 8.83 1.7 19.15.73 27.02-4.02 15.79 16.62 32.33 33.16 49 49-8.69 11.47-10.37 29.88-4.77 42.77s14.55 20.69 27.75 25.25c13.19 4.57 30.24.94 41.27-7.77S270.72 631.51 270 618s-7.63-26.68-18.92-34.08-29.28-11.81-41.85-4.69-19.52-8.14-28.98-16.48c-9.47-8.34-17.45-17.89-26.25-26.75 5.58-5.55 9.15-13.38 11-21h83c3.4 38.96 50.55 58.74 82.3 38.3 31.76-20.43 32.46-68.38 1.4-90-31.07-21.62-77.55-3.03-83.7 34.7h-13zm-7-71c34.59 1.45 31.17 58.25-4 55s-29.99-56.42 4-55m-10 71v64h-53c-.07-10.05-13.91-19.85-5.25-27.25 8.67-7.4 13.16-13.7 21-21 7.85-7.3 14.13-14.13 21.25-21.75 5.18 2.54 10.09 5.69 16 6m89 37c26.46 4.3 39.5 38.67 22.75 59.75-16.76 21.07-50.34 18.01-61.67-6.83-11.33-24.83 9.52-57.69 38.92-52.92m-179 8c32.93 5.9 22.45 62.58-11.67 54.67S92.57 472.65 128 479m103 114c33.94 5.51 24.89 61.25-9.67 54.67S196.79 587.45 231 593"/>
</svg>

