<svg xmlns="http://www.w3.org/2000/svg" viewBox="77 346 867 319">
  <path fill="none" stroke="#fff" stroke-width=".3" d="M0 1024h1024V0H0v1024m235-590v64h13c6.15-37.73 52.63-56.32 83.7-34.7 31.06 21.62 30.36 69.57-1.4 90-31.75 20.44-78.9.66-82.3-38.3h-83c-1.85 7.62-5.42 15.45-11 21 8.8 8.86 16.78 18.41 26.25 26.75 9.46 8.34 16.41 23.6 28.98 16.48s30.56-2.71 41.85 4.69S269.28 604.49 270 618s-4.72 28.54-15.75 37.25-28.08 12.34-41.27 7.77c-13.2-4.56-22.15-12.36-27.75-25.25s-3.92-31.3 4.77-42.77c-16.67-15.84-33.21-32.38-49-49-7.87 4.75-18.19 5.72-27.02 4.02-8.84-1.69-16.06-4.96-22.73-11.27-6.68-6.31-9.97-13.05-12.23-21.77-2.25-8.73-1.27-21.43 2.75-29.21 4.02-7.77 7.92-13.82 15.46-18.54s17.45-8.51 26.77-7.23 17.47 5.76 23.75-2.25 10.34-10.25 17-17 9.29-10.79 17-17 7.88-11.16 2.94-19.44-2.98-20.97-.71-29.33c2.26-8.37 7.27-14.23 13.77-20.23 6.51-6 15.19-8.93 24.25-9.75s20.24 1.29 27.75 6.25c7.5 4.97 12.07 9.79 16.17 17.83 4.11 8.03 5.09 20.15 3.15 28.99-1.93 8.85-5.33 15.84-11.82 22.18S243.81 432.7 235 434m708-1c-.54 5.61 1.16 11.82-1 17-10.48-4.98-21.19 4.9-18 16h18v17h-18c-.66 22.24 1.33 45.2-1 67-5.46-1.64-12.56-1.62-18 0-2.33-21.83-.34-44.75-1-67h-16c1.63-4.32-2.32-11.77.33-15.67s11.79.16 15.67-1.33c-6.23-24.03 17.21-40.66 39-33m-146 1v116c-5.51-2.19-12.07-.43-18-1 .13-3.47.13-6.84-1-10-12.76 16.29-39.57 16.06-51.75-.25-12.19-16.31-13.07-42.22-1.95-59.45 11.13-17.22 38.76-19.5 52.7-4.3-1.79-11.8 2.38-17.6 0-30s9.3-12.45 20-11m-368 11v21c9.77 1.39 18.54-4.65 19 8s-8.91 8.48-19 9c3.08 17.07-10.9 57.77 19 50 4.11 11.97-2.63 20.19-13 18-10.36-2.19-15.68-.87-21.75-9.25-6.08-8.38-3.7-16.75-4.25-26.75s.42-21.84 0-32h-16c1.63-4.32-2.32-11.77.33-15.67s11.79.16 15.67-1.33v-21h20m135 96v38h-20c-.07-11.74.09-23.23 0-35-.09-11.76.17-24.26 0-36s.36-24.46 0-36 25.71-8.22 19 5c13.21-14.67 39.55-17.3 51.92.08 12.36 17.38 11.89 40.91.83 58.67-11.06 17.75-37.3 20.69-51.75 5.25m144-28h-57c-3.25 21.04 30.45 32.88 38 12 6.2-.48 11.72 1.75 18 1-4.43 28.35-49.62 33.88-65.75 12.75-16.14-21.13-13.86-59.2 13.45-71.06C682 455.84 717.08 480.66 708 513m176 0h-56c-1.36 7.47 3.87 16.45 10.08 19.92s18.51 6.18 23.62-1.22c5.1-7.41 13.1-7.89 22.3-4.7-6.54 28.09-50.51 32.44-66.75 10.75s-12.59-59.05 14.97-70.53c27.57-11.48 61.76 14.76 51.78 45.78m-407-47c5.9 19.84 14.23 39.08 20 59 7.77-18.77 12.75-39.37 19-59h21c-6.5 23.34-17.29 46.84-23.93 70.07-6.63 23.24-18.01 53.08-49.07 45.93-.67-5.93.96-11.23 1-17 16.96 4.3 24.98-12.24 18.68-24.68s-8.88-24.15-14.45-36.55S459.57 478.95 456 466z"/>
  <path fill="none" stroke="#000" stroke-width=".3" d="M235 434c8.81-1.3 15.76-5.41 22.25-11.75s9.89-13.33 11.82-22.18c1.94-8.84.96-20.96-3.15-28.99-4.1-8.04-8.67-12.86-16.17-17.83-7.51-4.96-18.69-7.07-27.75-6.25s-17.74 3.75-24.25 9.75c-6.5 6-11.51 11.86-13.77 20.23-2.27 8.36-4.23 21.05.71 29.33s4.77 13.23-2.94 19.44-10.34 10.25-17 17-10.72 8.99-17 17-14.43 3.53-23.75 2.25-19.23 2.51-26.77 7.23S85.79 480 81.77 487.77c-4.02 7.78-5 20.48-2.75 29.21 2.26 8.72 5.55 15.46 12.23 21.77 6.67 6.31 13.89 9.58 22.73 11.27 8.83 1.7 19.15.73 27.02-4.02 15.79 16.62 32.33 33.16 49 49-8.69 11.47-10.37 29.88-4.77 42.77s14.55 20.69 27.75 25.25c13.19 4.57 30.24.94 41.27-7.77S270.72 631.51 270 618s-7.63-26.68-18.92-34.08-29.28-11.81-41.85-4.69-19.52-8.14-28.98-16.48c-9.47-8.34-17.45-17.89-26.25-26.75 5.58-5.55 9.15-13.38 11-21h83c3.4 38.96 50.55 58.74 82.3 38.3 31.76-20.43 32.46-68.38 1.4-90-31.07-21.62-77.55-3.03-83.7 34.7h-13v-64m-7-71c34.59 1.45 31.17 58.25-4 55s-29.99-56.42 4-55m-10 71v64h-53c-.07-10.05-13.91-19.85-5.25-27.25 8.67-7.4 13.16-13.7 21-21 7.85-7.3 14.13-14.13 21.25-21.75 5.18 2.54 10.09 5.69 16 6m89 37c26.46 4.3 39.5 38.67 22.75 59.75-16.76 21.07-50.34 18.01-61.67-6.83-11.33-24.83 9.52-57.69 38.92-52.92m-179 8c32.93 5.9 22.45 62.58-11.67 54.67S92.57 472.65 128 479m103 114c33.94 5.51 24.89 61.25-9.67 54.67S196.79 587.45 231 593Z"/>
  <path fill="none" stroke="#fff" stroke-width=".3" d="M228 363c-33.99-1.42-39.17 51.75-4 55s38.59-53.55 4-55Zm-10 71c-5.91-.31-10.82-3.46-16-6-7.12 7.62-13.4 14.45-21.25 21.75-7.84 7.3-12.33 13.6-21 21-8.66 7.4 5.18 17.2 5.25 27.25h53z"/>
  <path fill="none" stroke="#000" stroke-width=".3" d="M943 433c-21.79-7.66-45.23 8.97-39 33-3.88 1.49-13.02-2.57-15.67 1.33s1.3 11.35-.33 15.67h16c.66 22.25-1.33 45.17 1 67 5.44-1.62 12.54-1.64 18 0 2.33-21.8.34-44.76 1-67h18v-17h-18c-3.19-11.1 7.52-20.98 18-16 2.16-5.18.46-11.39 1-17Zm-146 1c-10.7-1.45-22.38-1.4-20 11s-1.79 18.2 0 30c-13.94-15.2-41.57-12.92-52.7 4.3-11.12 17.23-10.24 43.14 1.95 59.45 12.18 16.31 38.99 16.54 51.75.25 1.13 3.16 1.13 6.53 1 10 5.93.57 12.49-1.19 18 1V434m-35 47c25.63 5.31 17.94 59.99-9.02 53.02-26.97-6.96-18.92-58.81 9.02-53.02Zm-333-36h-20v21c-3.88 1.49-13.02-2.57-15.67 1.33s1.3 11.35-.33 15.67h16c.42 10.16-.55 22 0 32s-1.83 18.37 4.25 26.75c6.07 8.38 11.39 7.06 21.75 9.25 10.37 2.19 17.11-6.03 13-18-29.9 7.77-15.92-32.93-19-50 10.09-.52 19.46 3.65 19-9s-9.23-6.61-19-8zm135 96c14.45 15.44 40.69 12.5 51.75-5.25 11.06-17.76 11.53-41.29-.83-58.67-12.37-17.38-38.71-14.75-51.92-.08 6.71-13.22-19.36-16.54-19-5s-.17 24.26 0 36-.09 24.24 0 36c.09 11.77-.07 23.26 0 35h20v-38m25-60c24.94 6.18 17.82 58.64-9.02 53.02-26.85-5.61-19.45-60.07 9.02-53.02Zm119 32c9.08-32.34-26-57.16-53.3-45.31-27.31 11.86-29.59 49.93-13.45 71.06 16.13 21.13 61.32 15.6 65.75-12.75-6.28.75-11.8-1.48-18-1-7.55 20.88-41.25 9.04-38-12h57m-19-13h-38c-1.9-26.02 41.39-27.15 38 0Zm195 13c9.98-31.02-24.21-57.26-51.78-45.78-27.56 11.48-31.21 48.84-14.97 70.53S877.46 555.09 884 527c-9.2-3.19-17.2-2.71-22.3 4.7-5.11 7.4-17.41 4.69-23.62 1.22S826.64 520.47 828 513h56m-18-14c-12.16 2.31-25.42.35-38 1-2.97-25.92 39.6-26.98 38-1Zm-389-33h-21c3.57 12.95 7.66 25.37 13.23 37.77s8.15 24.11 14.45 36.55S481.96 569.3 465 565c-.04 5.77-1.67 11.07-1 17 31.06 7.15 42.44-22.69 49.07-45.93 6.64-23.23 17.43-46.73 23.93-70.07h-21c-6.25 19.63-11.23 40.23-19 59-5.77-19.92-14.1-39.16-20-59Z"/>
  <path fill="none" stroke="#fff" stroke-width=".3" d="M307 471c-29.4-4.77-50.25 28.09-38.92 52.92 11.33 24.84 44.91 27.9 61.67 6.83C346.5 509.67 333.46 475.3 307 471Zm-179 8c-35.43-6.35-45.79 46.76-11.67 54.67S160.93 484.9 128 479Zm561 21c3.39-27.15-39.9-26.02-38 0zm177-1c1.6-25.98-40.97-24.92-38 1 12.58-.65 25.84 1.31 38-1Zm-277-18c-28.47-7.05-35.87 47.41-9.02 53.02 26.84 5.62 33.96-46.84 9.02-53.02Zm173 0c-27.94-5.79-35.99 46.06-9.02 53.02 26.96 6.97 34.65-47.71 9.02-53.02ZM231 593c-34.21-5.55-44.23 48.09-9.67 54.67S264.94 598.51 231 593Z"/>
  <path d="M235 434c8.81-1.3 15.76-5.41 22.25-11.75s9.89-13.33 11.82-22.18c1.94-8.84.96-20.96-3.15-28.99-4.1-8.04-8.67-12.86-16.17-17.83-7.51-4.96-18.69-7.07-27.75-6.25s-17.74 3.75-24.25 9.75c-6.5 6-11.51 11.86-13.77 20.23-2.27 8.36-4.23 21.05.71 29.33s4.77 13.23-2.94 19.44-10.34 10.25-17 17-10.72 8.99-17 17-14.43 3.53-23.75 2.25-19.23 2.51-26.77 7.23S85.79 480 81.77 487.77c-4.02 7.78-5 20.48-2.75 29.21 2.26 8.72 5.55 15.46 12.23 21.77 6.67 6.31 13.89 9.58 22.73 11.27 8.83 1.7 19.15.73 27.02-4.02 15.79 16.62 32.33 33.16 49 49-8.69 11.47-10.37 29.88-4.77 42.77s14.55 20.69 27.75 25.25c13.19 4.57 30.24.94 41.27-7.77S270.72 631.51 270 618s-7.63-26.68-18.92-34.08-29.28-11.81-41.85-4.69-19.52-8.14-28.98-16.48c-9.47-8.34-17.45-17.89-26.25-26.75 5.58-5.55 9.15-13.38 11-21h83c3.4 38.96 50.55 58.74 82.3 38.3 31.76-20.43 32.46-68.38 1.4-90-31.07-21.62-77.55-3.03-83.7 34.7h-13zm-7-71c34.59 1.45 31.17 58.25-4 55s-29.99-56.42 4-55m-10 71v64h-53c-.07-10.05-13.91-19.85-5.25-27.25 8.67-7.4 13.16-13.7 21-21 7.85-7.3 14.13-14.13 21.25-21.75 5.18 2.54 10.09 5.69 16 6m89 37c26.46 4.3 39.5 38.67 22.75 59.75-16.76 21.07-50.34 18.01-61.67-6.83-11.33-24.83 9.52-57.69 38.92-52.92m-179 8c32.93 5.9 22.45 62.58-11.67 54.67S92.57 472.65 128 479m103 114c33.94 5.51 24.89 61.25-9.67 54.67S196.79 587.45 231 593"/>
  <path d="M943 433c-21.79-7.66-45.23 8.97-39 33-3.88 1.49-13.02-2.57-15.67 1.33s1.3 11.35-.33 15.67h16c.66 22.25-1.33 45.17 1 67 5.44-1.62 12.54-1.64 18 0 2.33-21.8.34-44.76 1-67h18v-17h-18c-3.19-11.1 7.52-20.98 18-16 2.16-5.18.46-11.39 1-17m-146 1c-10.7-1.45-22.38-1.4-20 11s-1.79 18.2 0 30c-13.94-15.2-41.57-12.92-52.7 4.3-11.12 17.23-10.24 43.14 1.95 59.45 12.18 16.31 38.99 16.54 51.75.25 1.13 3.16 1.13 6.53 1 10 5.93.57 12.49-1.19 18 1zm-35 47c25.63 5.31 17.94 59.99-9.02 53.02-26.97-6.96-18.92-58.81 9.02-53.02m-333-36h-20v21c-3.88 1.49-13.02-2.57-15.67 1.33s1.3 11.35-.33 15.67h16c.42 10.16-.55 22 0 32s-1.83 18.37 4.25 26.75c6.07 8.38 11.39 7.06 21.75 9.25 10.37 2.19 17.11-6.03 13-18-29.9 7.77-15.92-32.93-19-50 10.09-.52 19.46 3.65 19-9s-9.23-6.61-19-8zm135 96c14.45 15.44 40.69 12.5 51.75-5.25 11.06-17.76 11.53-41.29-.83-58.67-12.37-17.38-38.71-14.75-51.92-.08 6.71-13.22-19.36-16.54-19-5s-.17 24.26 0 36-.09 24.24 0 36c.09 11.77-.07 23.26 0 35h20zm25-60c24.94 6.18 17.82 58.64-9.02 53.02-26.85-5.61-19.45-60.07 9.02-53.02m119 32c9.08-32.34-26-57.16-53.3-45.31-27.31 11.86-29.59 49.93-13.45 71.06 16.13 21.13 61.32 15.6 65.75-12.75-6.28.75-11.8-1.48-18-1-7.55 20.88-41.25 9.04-38-12zm-19-13h-38c-1.9-26.02 41.39-27.15 38 0m195 13c9.98-31.02-24.21-57.26-51.78-45.78-27.56 11.48-31.21 48.84-14.97 70.53S877.46 555.09 884 527c-9.2-3.19-17.2-2.71-22.3 4.7-5.11 7.4-17.41 4.69-23.62 1.22S826.64 520.47 828 513zm-18-14c-12.16 2.31-25.42.35-38 1-2.97-25.92 39.6-26.98 38-1m-389-33h-21c3.57 12.95 7.66 25.37 13.23 37.77s8.15 24.11 14.45 36.55S481.96 569.3 465 565c-.04 5.77-1.67 11.07-1 17 31.06 7.15 42.44-22.69 49.07-45.93 6.64-23.23 17.43-46.73 23.93-70.07h-21c-6.25 19.63-11.23 40.23-19 59-5.77-19.92-14.1-39.16-20-59"/>
</svg>
